<svg width="77" height="71" viewBox="0 0 77 71" fill="none" xmlns="http://www.w3.org/2000/svg">
<path d="M9.1351 36.1759L11.7198 33.816L9.1351 36.1759ZM67.8652 36.1761L65.2805 33.8162L67.8652 36.1761ZM67.8594 36.157L70.4177 38.5456L67.8594 36.157ZM40.7157 65.9113L38.131 63.5514L40.7157 65.9113ZM36.2848 65.9113L38.8695 63.5514L36.2848 65.9113ZM41.2391 8.7807L38.9226 6.15698L41.2391 8.7807ZM9.14077 36.1573L6.58258 38.546L9.14077 36.1573ZM11.699 33.7687C9.09109 30.9757 7.5 27.235 7.5 23.1149H0.5C0.5 29.0777 2.81233 34.5081 6.58258 38.546L11.699 33.7687ZM7.5 23.1149C7.5 14.491 14.491 7.5 23.1149 7.5V0.5C10.625 0.5 0.5 10.625 0.5 23.1149H7.5ZM23.1149 7.5C27.0782 7.5 30.6893 8.97206 33.4443 11.4044L38.0772 6.15698C34.0924 2.63879 28.8491 0.5 23.1149 0.5V7.5ZM43.5556 11.4044C46.3106 8.97206 49.9216 7.5 53.885 7.5V0.5C48.1507 0.5 42.9075 2.63879 38.9226 6.15698L43.5556 11.4044ZM53.885 7.5C62.5088 7.5 69.4999 14.491 69.4999 23.1149H76.4999C76.4999 10.625 66.3748 0.5 53.885 0.5V7.5ZM69.4999 23.1149C69.4999 27.2348 67.9089 30.9754 65.3012 33.7684L70.4177 38.5456C74.1877 34.5078 76.4999 29.0775 76.4999 23.1149H69.4999ZM43.3004 68.2713L70.4499 38.5361L65.2805 33.8162L38.131 63.5514L43.3004 68.2713ZM6.5504 38.5359L33.7001 68.2713L38.8695 63.5514L11.7198 33.816L6.5504 38.5359ZM11.7198 33.816C13.5154 35.7826 12.5393 38.9545 9.94876 39.5714L8.32715 32.7619C5.72823 33.3808 4.74903 36.5629 6.5504 38.5359L11.7198 33.816ZM67.0513 39.5713C64.4605 38.9542 63.4855 35.7822 65.2805 33.8162L70.4499 38.5361C72.251 36.5635 71.2727 33.381 68.6733 32.7618L67.0513 39.5713ZM65.3012 33.7684C63.4668 35.733 64.4346 38.948 67.0513 39.5713L68.6733 32.7618C71.2814 33.383 72.246 36.5874 70.4177 38.5456L65.3012 33.7684ZM38.131 63.5514C38.3293 63.3342 38.6712 63.3342 38.8695 63.5514L33.7001 68.2713C36.2776 71.0943 40.7229 71.0943 43.3004 68.2713L38.131 63.5514ZM33.4443 11.4044C36.2806 13.9086 40.7193 13.9086 43.5556 11.4044L38.9226 6.15698C38.8707 6.20282 38.729 6.28253 38.4999 6.28253C38.2708 6.28253 38.1292 6.20282 38.0772 6.15698L33.4443 11.4044ZM6.58258 38.546C4.75394 36.5875 5.71896 33.383 8.32715 32.7619L9.94876 39.5714C12.5654 38.9483 13.5335 35.7334 11.699 33.7687L6.58258 38.546Z" fill="#B6B6B6"/>
</svg>
