<svg width="63" height="69" viewBox="0 0 63 69" fill="none" xmlns="http://www.w3.org/2000/svg">
<path fill-rule="evenodd" clip-rule="evenodd" d="M57.3344 14.1766H19.4196L19.4196 62.9087H57.3344V14.1766ZM19.4196 8.86035C16.3552 8.86035 13.8711 11.2405 13.8711 14.1766V62.9087C13.8711 65.8448 16.3552 68.225 19.4196 68.225H57.3344C60.3988 68.225 62.8829 65.8448 62.8829 62.9087V14.1766C62.8829 11.2405 60.3988 8.86035 57.3344 8.86035H19.4196Z" fill="#B6B6B6"/>
<path d="M0 5.31623C0 2.38016 2.48415 0 5.54851 0H43.4633C46.5277 0 49.0118 2.38016 49.0118 5.31623V54.0484C49.0118 56.9844 46.5277 59.3646 43.4633 59.3646H5.54851C2.48415 59.3646 0 56.9844 0 54.0484V5.31623Z" fill="white"/>
<path fill-rule="evenodd" clip-rule="evenodd" d="M43.4633 5.31623H5.54851L5.54851 54.0484H43.4633V5.31623ZM5.54851 0C2.48415 0 0 2.38016 0 5.31623V54.0484C0 56.9844 2.48415 59.3646 5.54851 59.3646H43.4633C46.5277 59.3646 49.0118 56.9845 49.0118 54.0484V5.31623C49.0118 2.38016 46.5277 0 43.4633 0H5.54851Z" fill="#B6B6B6"/>
</svg>
