<svg width="82" height="74" viewBox="0 0 82 74" fill="none" xmlns="http://www.w3.org/2000/svg">
<path d="M66.1846 52.2104L64.1918 49.3331L62.1671 50.7354L62.8034 53.1147L66.1846 52.2104ZM50.5284 58.6625L52.5401 55.7984L51.3163 54.9388L49.8492 55.229L50.5284 58.6625ZM65.1752 68.9501L67.1869 66.086L65.1752 68.9501ZM69.7977 65.7201L66.4165 66.6244L69.7977 65.7201ZM74.606 31.7897C74.606 38.44 70.8299 44.7355 64.1918 49.3331L68.1774 55.0877C76.2005 49.5308 81.606 41.287 81.606 31.7897H74.606ZM41.053 7.5C50.6008 7.5 59.11 10.4069 65.1534 14.9394C71.1957 19.4711 74.606 25.4645 74.606 31.7897H81.606C81.606 22.7672 76.7217 14.8656 69.3534 9.33943C61.9862 3.81404 51.9689 0.5 41.053 0.5V7.5ZM7.5 31.7897C7.5 25.4645 10.9103 19.4711 16.9526 14.9394C22.9959 10.4069 31.5052 7.5 41.053 7.5V0.5C30.137 0.5 20.1198 3.81404 12.7526 9.33943C5.38431 14.8656 0.5 22.7672 0.5 31.7897H7.5ZM41.053 56.0795C31.5052 56.0795 22.9959 53.1726 16.9526 48.64C10.9103 44.1083 7.5 38.115 7.5 31.7897H0.5C0.5 40.8123 5.38431 48.7139 12.7526 54.24C20.1198 59.7654 30.137 63.0795 41.053 63.0795V56.0795ZM49.8492 55.229C47.0497 55.7828 44.1014 56.0795 41.053 56.0795V63.0795C44.5548 63.0795 47.9581 62.7388 51.2076 62.096L49.8492 55.229ZM48.5167 61.5266L63.1635 71.8142L67.1869 66.086L52.5401 55.7984L48.5167 61.5266ZM63.1635 71.8142C68.132 75.304 74.7475 70.6813 73.1788 64.8158L66.4165 66.6244C66.4017 66.5689 66.3953 66.4407 66.4497 66.3034C66.4955 66.1878 66.5615 66.1214 66.6131 66.0853C66.6648 66.0493 66.7498 66.0102 66.8741 66.0069C67.0217 66.003 67.1399 66.053 67.1869 66.086L63.1635 71.8142ZM73.1788 64.8158L69.5658 51.3061L62.8034 53.1147L66.4165 66.6244L73.1788 64.8158Z" fill="#B6B6B6"/>
</svg>
