<svg width="104" height="57" viewBox="0 0 104 57" fill="none" xmlns="http://www.w3.org/2000/svg">
<path d="M43.0564 10.0273C38.9105 6.27911 33.4357 4 27.4338 4C14.4917 4 4 14.5977 4 27.6705C4 40.7434 14.4917 51.3411 27.4338 51.3411C33.4357 51.3411 38.9105 49.062 43.0564 45.3138" stroke="#9A1FFF" stroke-width="7" stroke-linecap="round"/>
<path d="M60.5134 46.4974C64.6907 50.2455 70.2071 52.5247 76.2544 52.5247C89.2946 52.5247 99.8657 41.927 99.8657 28.8541C99.8657 15.7812 89.2946 5.18357 76.2544 5.18357C70.2071 5.18357 64.6907 7.46267 60.5134 11.2108C57.7519 13.4929 53.7082 22.9365 52.2287 28.8541C50.7493 34.7718 45.3248 44.2153 41.8729 46.4974" stroke="#9A1FFF" stroke-width="7" stroke-linecap="round"/>
</svg>
